<svg id="Capa_1" enable-background="new 0 0 512 512" height="512" viewBox="0 0 512 512" width="512" xmlns="http://www.w3.org/2000/svg"><path d="m201.86 15.86c-3.75-3.75-8.84-5.86-14.14-5.86h-121.72c-11.05 0-20 8.95-20 20v130h210v-90z" fill="#ff764e"/><path d="m466 160v216c-11.847 0-408.153 0-420 0v-216z" fill="#ffcd69"/><path d="m466 120v40h-60v-60h40c11.05 0 20 8.95 20 20z" fill="#ff764e"/><circle cx="436" cy="472" fill="#bfdbff" r="30"/><path d="m406 160h-300v-90h300z" fill="#ecf2f3"/><path d="m316 502h-120c0-7.259 0-52.693 0-60h120z" fill="#bfdbff"/><circle cx="76" cy="472" fill="#bfdbff" r="30"/><path d="m286 323h120c5.522 0 10-4.477 10-10s-4.478-10-10-10h-120c-5.522 0-10 4.477-10 10s4.478 10 10 10z"/><path d="m286 263h60c5.522 0 10-4.477 10-10s-4.478-10-10-10h-60c-5.522 0-10 4.477-10 10s4.478 10 10 10z"/><path d="m196 432c-5.522 0-10 4.477-10 10v20h-71.266c-4.452-17.233-20.13-30-38.734-30-22.056 0-40 17.944-40 40s17.944 40 40 40c18.604 0 34.282-12.767 38.734-30h71.266v20c0 5.523 4.478 10 10 10h120c5.522 0 10-4.477 10-10v-20h71.266c4.452 17.233 20.13 30 38.734 30 22.056 0 40-17.944 40-40s-17.944-40-40-40c-18.604 0-34.282 12.767-38.734 30h-71.266v-20c0-5.523-4.478-10-10-10h-50v-46h200c5.522 0 10-4.477 10-10v-256c0-16.542-13.458-30-30-30h-30v-20c0-5.523-4.478-10-10-10h-145.858l-51.21-51.211c-5.586-5.585-13.318-8.789-21.212-8.789h-121.72c-16.542 0-30 13.458-30 30v346c0 5.523 4.478 10 10 10h200v46zm-120 60c-11.028 0-20-8.972-20-20s8.972-20 20-20 20 8.972 20 20-8.972 20-20 20zm360-40c11.028 0 20 8.972 20 20s-8.972 20-20 20-20-8.972-20-20 8.972-20 20-20zm10-342c5.514 0 10 4.486 10 10v30h-40v-40zm-380-90h121.72c2.63 0 5.207 1.068 7.069 2.931l37.069 37.069h-125.858c-5.522 0-10 4.477-10 10v80h-40v-120c0-5.514 4.486-10 10-10zm-10 150h155c5.522 0 10-4.477 10-10s-4.478-10-10-10h-95v-70h280v70h-95c-5.522 0-10 4.477-10 10s4.478 10 10 10h155v196h-400zm250 322h-100v-40h100z"/><ellipse cx="256" cy="160" rx="10" ry="10" transform="matrix(.973 -.23 .23 .973 -29.912 63.097)"/></svg>